<svg xmlns="http://www.w3.org/2000/svg" width="72" height="72.181" viewBox="0 0 72 72.181">
  <g id="Grupo_233" data-name="Grupo 233" transform="translate(-578.628 -410.323)">
    <path id="Trazado_433" data-name="Trazado 433" d="M578.628,444.24c.182-1.319.3-2.648.552-3.953,2.491-12.7,9.589-21.95,21.507-26.91,13.141-5.467,25.631-3.541,36.769,5.341a34.232,34.232,0,0,1,12.926,23.6,35.906,35.906,0,0,1-27.067,39.112c-1.9.472-3.874.638-5.813.951-.206.033-.408.082-.612.122h-4.5a3.271,3.271,0,0,0-.47-.111,34.91,34.91,0,0,1-18.517-6.843,35.444,35.444,0,0,1-14.214-22.781c-.244-1.332-.377-2.684-.561-4.024Zm3.615,2.227a32.4,32.4,0,1,0,32.452-32.377A32.389,32.389,0,0,0,582.242,446.468Z" transform="translate(0)" fill="#00f3f7"/>
    <path id="Trazado_434" data-name="Trazado 434" d="M605.081,434.524l-8.576-7.506q-2.061-1.8-4.124-3.608a1.8,1.8,0,1,1,2.3-2.766c1.026.855,2.017,1.751,3.02,2.63q5.528,4.837,11.052,9.675c1.192,1.044,1.186,2.141-.018,3.2q-6.927,6.063-13.857,12.124a1.887,1.887,0,0,1-2.427.368,1.787,1.787,0,0,1-.1-2.934c1.784-1.589,3.592-3.154,5.392-4.727q3.464-3.032,6.928-6.063C604.79,434.81,604.9,434.694,605.081,434.524Z" transform="translate(15.812 11.953)" fill="#00f3f7"/>
  </g>
</svg>
