<svg id="Grupo_243" data-name="Grupo 243" xmlns="http://www.w3.org/2000/svg" xmlns:xlink="http://www.w3.org/1999/xlink" width="1920" height="1080" viewBox="0 0 1920 1080">
  <defs>
    <radialGradient id="radial-gradient" cx="0.5" cy="0.5" r="0.5" gradientUnits="objectBoundingBox">
      <stop offset="0" stop-color="#14384e"/>
      <stop offset="1" stop-color="#0d222d"/>
    </radialGradient>
  </defs>
  <rect id="Rectángulo_2" data-name="Rectángulo 2" width="1920" height="1080" fill="url(#radial-gradient)"/>
  <g id="Grupo_155" data-name="Grupo 155" transform="translate(-0.156 0.766)">
    <g id="Grupo_82" data-name="Grupo 82">
      <g id="Grupo_13" data-name="Grupo 13">
        <g id="Grupo_11" data-name="Grupo 11">
          <path id="Trazado_18" data-name="Trazado 18" d="M104.374,907.746H2.157v1.609H103.707L245.847,1051.5l1.138-1.138Z" fill="#1d3f4c"/>
        </g>
        <g id="Grupo_12" data-name="Grupo 12">
          <path id="Trazado_19" data-name="Trazado 19" d="M241.924,1054.993a6.051,6.051,0,1,0,0-8.558A6.054,6.054,0,0,0,241.924,1054.993Z" fill="#1d3f4c"/>
        </g>
      </g>
      <g id="Grupo_16" data-name="Grupo 16">
        <g id="Grupo_14" data-name="Grupo 14">
          <path id="Trazado_20" data-name="Trazado 20" d="M330.6,28.481l-91,91H57.778L2.157,175.1v2.276L58.444,121.09H240.263l91-91H495.774V28.481Z" fill="#1d3f4c"/>
        </g>
        <g id="Grupo_15" data-name="Grupo 15">
          <path id="Trazado_21" data-name="Trazado 21" d="M495.472,35.337a6.051,6.051,0,1,0-6.051-6.051A6.052,6.052,0,0,0,495.472,35.337Z" fill="#1d3f4c"/>
        </g>
      </g>
      <g id="Grupo_19" data-name="Grupo 19">
        <g id="Grupo_17" data-name="Grupo 17">
          <path id="Trazado_22" data-name="Trazado 22" d="M116.342,806.739l-46.09,46.09H2.157v1.609H70.918l46.09-46.09H464.934v-1.609Z" fill="#1d3f4c"/>
        </g>
        <g id="Grupo_18" data-name="Grupo 18">
          <path id="Trazado_23" data-name="Trazado 23" d="M464.632,813.595a6.051,6.051,0,1,0-6.051-6.051A6.051,6.051,0,0,0,464.632,813.595Z" fill="#1d3f4c"/>
        </g>
      </g>
      <g id="Grupo_22" data-name="Grupo 22">
        <g id="Grupo_20" data-name="Grupo 20">
          <path id="Trazado_24" data-name="Trazado 24" d="M106.17,386.278,36.382,316.49H2.157V318.1H35.716L105.5,387.888H315.337v-1.609Z" fill="#1d3f4c"/>
        </g>
        <g id="Grupo_21" data-name="Grupo 21">
          <path id="Trazado_25" data-name="Trazado 25" d="M315.034,393.134a6.051,6.051,0,1,0-6.051-6.051A6.052,6.052,0,0,0,315.034,393.134Z" fill="#1d3f4c"/>
        </g>
      </g>
      <g id="Grupo_25" data-name="Grupo 25">
        <g id="Grupo_23" data-name="Grupo 23">
          <path id="Trazado_26" data-name="Trazado 26" d="M105.717,750.418,38.871,817.265H2.157v1.609H39.538l66.846-66.848H368.179v-1.609Z" fill="#1d3f4c"/>
        </g>
        <g id="Grupo_24" data-name="Grupo 24">
          <circle id="Elipse_6" data-name="Elipse 6" cx="6.051" cy="6.051" r="6.051" transform="translate(361.826 745.172)" fill="#1d3f4c"/>
        </g>
      </g>
      <g id="Grupo_28" data-name="Grupo 28">
        <g id="Grupo_26" data-name="Grupo 26">
          <path id="Trazado_27" data-name="Trazado 27" d="M347.194,393.636l-68.281,68.281H2.157v1.609H279.579l68.753-68.752Z" fill="#1d3f4c"/>
        </g>
        <g id="Grupo_27" data-name="Grupo 27">
          <path id="Trazado_28" data-name="Trazado 28" d="M351.827,398.7a6.051,6.051,0,1,0-8.557,0A6.05,6.05,0,0,0,351.827,398.7Z" fill="#1d3f4c"/>
        </g>
      </g>
      <g id="Grupo_31" data-name="Grupo 31">
        <g id="Grupo_29" data-name="Grupo 29">
          <path id="Trazado_29" data-name="Trazado 29" d="M429.176,694.687H133.665L62.408,765.948H2.157v1.609H63.074L134.332,696.3H428.51l86.9,86.9,1.138-1.138Z" fill="#1d3f4c"/>
        </g>
        <g id="Grupo_30" data-name="Grupo 30">
          <circle id="Elipse_7" data-name="Elipse 7" cx="6.051" cy="6.051" r="6.051" transform="translate(509.712 776.36)" fill="#1d3f4c"/>
        </g>
      </g>
      <g id="Grupo_34" data-name="Grupo 34">
        <g id="Grupo_32" data-name="Grupo 32">
          <path id="Trazado_30" data-name="Trazado 30" d="M165.486,627.893,57.176,736.2H2.157v1.609H57.842L166.624,629.03Z" fill="#1d3f4c"/>
        </g>
        <g id="Grupo_33" data-name="Grupo 33">
          <path id="Trazado_31" data-name="Trazado 31" d="M170.119,632.955a6.051,6.051,0,1,0-8.557,0A6.051,6.051,0,0,0,170.119,632.955Z" fill="#1d3f4c"/>
        </g>
      </g>
      <g id="Grupo_37" data-name="Grupo 37">
        <g id="Grupo_35" data-name="Grupo 35">
          <path id="Trazado_32" data-name="Trazado 32" d="M26.211,523.04,2.157,498.985v2.276l23.388,23.388H443.474V523.04Z" fill="#1d3f4c"/>
        </g>
        <g id="Grupo_36" data-name="Grupo 36">
          <path id="Trazado_33" data-name="Trazado 33" d="M443.171,529.9a6.051,6.051,0,1,0-6.051-6.051A6.051,6.051,0,0,0,443.171,529.9Z" fill="#1d3f4c"/>
        </g>
      </g>
      <g id="Grupo_40" data-name="Grupo 40">
        <g id="Grupo_38" data-name="Grupo 38">
          <rect id="Rectángulo_3" data-name="Rectángulo 3" width="57.449" height="1.609" transform="translate(2.157 682.266)" fill="#1d3f4c"/>
        </g>
        <g id="Grupo_39" data-name="Grupo 39">
          <path id="Trazado_34" data-name="Trazado 34" d="M59.3,689.122a6.051,6.051,0,1,0-6.051-6.051A6.051,6.051,0,0,0,59.3,689.122Z" fill="#1d3f4c"/>
        </g>
      </g>
      <g id="Grupo_43" data-name="Grupo 43">
        <g id="Grupo_41" data-name="Grupo 41">
          <rect id="Rectángulo_4" data-name="Rectángulo 4" width="73.139" height="1.609" transform="translate(2.157 650.885)" fill="#1d3f4c"/>
        </g>
        <g id="Grupo_42" data-name="Grupo 42">
          <circle id="Elipse_8" data-name="Elipse 8" cx="6.051" cy="6.051" r="6.051" transform="translate(68.943 645.639)" fill="#1d3f4c"/>
        </g>
      </g>
      <g id="Grupo_47" data-name="Grupo 47">
        <g id="Grupo_44" data-name="Grupo 44">
          <rect id="Rectángulo_5" data-name="Rectángulo 5" width="69.567" height="1.609" transform="translate(368.675 366.437)" fill="#1d3f4c"/>
        </g>
        <g id="Grupo_45" data-name="Grupo 45">
          <path id="Trazado_35" data-name="Trazado 35" d="M368.978,373.293a6.051,6.051,0,1,1,6.051-6.051A6.051,6.051,0,0,1,368.978,373.293Z" fill="#1d3f4c"/>
        </g>
        <g id="Grupo_46" data-name="Grupo 46">
          <path id="Trazado_36" data-name="Trazado 36" d="M437.94,373.293a6.051,6.051,0,1,0-6.05-6.051A6.052,6.052,0,0,0,437.94,373.293Z" fill="#1d3f4c"/>
        </g>
      </g>
      <g id="Grupo_50" data-name="Grupo 50">
        <g id="Grupo_48" data-name="Grupo 48">
          <path id="Trazado_37" data-name="Trazado 37" d="M29.845,427.889,2.157,400.2v2.276L29.179,429.5H255.192v-1.609Z" fill="#1d3f4c"/>
        </g>
        <g id="Grupo_49" data-name="Grupo 49">
          <path id="Trazado_38" data-name="Trazado 38" d="M254.89,434.745a6.051,6.051,0,1,0-6.051-6.051A6.051,6.051,0,0,0,254.89,434.745Z" fill="#1d3f4c"/>
        </g>
      </g>
      <g id="Grupo_53" data-name="Grupo 53">
        <g id="Grupo_51" data-name="Grupo 51">
          <path id="Trazado_39" data-name="Trazado 39" d="M329.906,69.631,213.539,186H80.173L4.336,261.836H2.157v1.609H5l75.836-75.836H214.206L330.573,71.241H482.7V69.631Z" fill="#1d3f4c"/>
        </g>
        <g id="Grupo_52" data-name="Grupo 52">
          <circle id="Elipse_9" data-name="Elipse 9" cx="6.051" cy="6.051" r="6.051" transform="translate(476.348 64.385)" fill="#1d3f4c"/>
        </g>
      </g>
      <g id="Grupo_56" data-name="Grupo 56">
        <g id="Grupo_54" data-name="Grupo 54">
          <path id="Trazado_40" data-name="Trazado 40" d="M489.044,247.829,399.2,337.672H130.525l-52.3-52.3H2.157v1.609h75.4l52.3,52.3H399.87l90.311-90.315Z" fill="#1d3f4c"/>
        </g>
        <g id="Grupo_55" data-name="Grupo 55">
          <path id="Trazado_41" data-name="Trazado 41" d="M493.678,252.891a6.051,6.051,0,1,0-8.557,0A6.051,6.051,0,0,0,493.678,252.891Z" fill="#1d3f4c"/>
        </g>
      </g>
      <g id="Grupo_60" data-name="Grupo 60">
        <g id="Grupo_57" data-name="Grupo 57">
          <path id="Trazado_42" data-name="Trazado 42" d="M245.586,245.138H91.484v-1.609H244.92l94.14-94.14H465.247L509.8,193.936l-1.138,1.138L464.58,151H339.726Z" fill="#1d3f4c"/>
        </g>
        <g id="Grupo_58" data-name="Grupo 58">
          <path id="Trazado_43" data-name="Trazado 43" d="M91.786,250.385a6.051,6.051,0,1,1,6.051-6.051A6.052,6.052,0,0,1,91.786,250.385Z" fill="#1d3f4c"/>
        </g>
        <g id="Grupo_59" data-name="Grupo 59">
          <path id="Trazado_44" data-name="Trazado 44" d="M504.733,198.569a6.051,6.051,0,1,0,0-8.557A6.051,6.051,0,0,0,504.733,198.569Z" fill="#1d3f4c"/>
        </g>
      </g>
      <g id="Grupo_64" data-name="Grupo 64">
        <g id="Grupo_61" data-name="Grupo 61">
          <path id="Trazado_45" data-name="Trazado 45" d="M303.115,284.363H143.784v-1.609H302.449l71.915-71.911h63.882v1.609H375.03Z" fill="#1d3f4c"/>
        </g>
        <g id="Grupo_62" data-name="Grupo 62">
          <circle id="Elipse_10" data-name="Elipse 10" cx="6.051" cy="6.051" r="6.051" transform="translate(138.036 277.508)" fill="#1d3f4c"/>
        </g>
        <g id="Grupo_63" data-name="Grupo 63">
          <path id="Trazado_46" data-name="Trazado 46" d="M437.942,217.7a6.051,6.051,0,1,0-6.051-6.051A6.051,6.051,0,0,0,437.942,217.7Z" fill="#1d3f4c"/>
        </g>
      </g>
      <g id="Grupo_68" data-name="Grupo 68">
        <g id="Grupo_65" data-name="Grupo 65">
          <path id="Trazado_47" data-name="Trazado 47" d="M389.409,483.1H83.637v-1.609H388.743L504.734,365.5l1.138,1.138Z" fill="#1d3f4c"/>
        </g>
        <g id="Grupo_66" data-name="Grupo 66">
          <path id="Trazado_48" data-name="Trazado 48" d="M83.939,488.345a6.051,6.051,0,1,1,6.051-6.051A6.051,6.051,0,0,1,83.939,488.345Z" fill="#1d3f4c"/>
        </g>
        <g id="Grupo_67" data-name="Grupo 67">
          <path id="Trazado_49" data-name="Trazado 49" d="M509.368,370.562a6.051,6.051,0,1,0-8.558,0A6.052,6.052,0,0,0,509.368,370.562Z" fill="#1d3f4c"/>
        </g>
      </g>
      <g id="Grupo_71" data-name="Grupo 71">
        <g id="Grupo_69" data-name="Grupo 69">
          <path id="Trazado_50" data-name="Trazado 50" d="M25.267,560.6l-23.11-23.11v2.276L24.6,562.205H469.622V560.6Z" fill="#1d3f4c"/>
        </g>
        <g id="Grupo_70" data-name="Grupo 70">
          <circle id="Elipse_11" data-name="Elipse 11" cx="6.051" cy="6.051" r="6.051" transform="translate(463.269 555.349)" fill="#1d3f4c"/>
        </g>
      </g>
      <g id="Grupo_74" data-name="Grupo 74">
        <g id="Grupo_72" data-name="Grupo 72">
          <path id="Trazado_51" data-name="Trazado 51" d="M28.209,599.494,2.157,573.441v2.276L27.543,601.1H493.159v-1.609Z" fill="#1d3f4c"/>
        </g>
        <g id="Grupo_73" data-name="Grupo 73">
          <path id="Trazado_52" data-name="Trazado 52" d="M492.856,606.349A6.052,6.052,0,1,0,486.8,600.3,6.052,6.052,0,0,0,492.856,606.349Z" fill="#1d3f4c"/>
        </g>
      </g>
      <g id="Grupo_77" data-name="Grupo 77">
        <g id="Grupo_75" data-name="Grupo 75">
          <path id="Trazado_53" data-name="Trazado 53" d="M143.6,873.747H2.157v1.609H142.932L268.077,1000.5l1.138-1.138Z" fill="#1d3f4c"/>
        </g>
        <g id="Grupo_76" data-name="Grupo 76">
          <path id="Trazado_54" data-name="Trazado 54" d="M264.153,1004a6.051,6.051,0,1,0,0-8.558A6.051,6.051,0,0,0,264.153,1004Z" fill="#1d3f4c"/>
        </g>
      </g>
      <g id="Grupo_81" data-name="Grupo 81">
        <g id="Grupo_78" data-name="Grupo 78">
          <path id="Trazado_55" data-name="Trazado 55" d="M502.968,954.46H279.57L198.41,873.3l1.138-1.138,80.688,80.686H502.968Z" fill="#1d3f4c"/>
        </g>
        <g id="Grupo_79" data-name="Grupo 79">
          <path id="Trazado_56" data-name="Trazado 56" d="M194.915,877.226a6.051,6.051,0,1,1,8.557,0A6.051,6.051,0,0,1,194.915,877.226Z" fill="#1d3f4c"/>
        </g>
        <g id="Grupo_80" data-name="Grupo 80">
          <circle id="Elipse_12" data-name="Elipse 12" cx="6.051" cy="6.051" r="6.051" transform="translate(496.615 947.605)" fill="#1d3f4c"/>
        </g>
      </g>
    </g>
    <g id="Grupo_154" data-name="Grupo 154">
      <g id="Grupo_85" data-name="Grupo 85">
        <g id="Grupo_83" data-name="Grupo 83">
          <path id="Trazado_57" data-name="Trazado 57" d="M1816.529,172.253h102.217v-1.609H1817.2L1675.056,28.5l-1.138,1.138Z" fill="#1d3f4c"/>
        </g>
        <g id="Grupo_84" data-name="Grupo 84">
          <circle id="Elipse_13" data-name="Elipse 13" cx="6.051" cy="6.051" r="6.051" transform="translate(1668.649 23.235)" fill="#1d3f4c"/>
        </g>
      </g>
      <g id="Grupo_88" data-name="Grupo 88">
        <g id="Grupo_86" data-name="Grupo 86">
          <path id="Trazado_58" data-name="Trazado 58" d="M1590.307,1051.519l91-91h181.819l55.621-55.621v-2.276l-56.287,56.288H1680.64l-91,91H1425.129v1.609Z" fill="#1d3f4c"/>
        </g>
        <g id="Grupo_87" data-name="Grupo 87">
          <path id="Trazado_59" data-name="Trazado 59" d="M1425.431,1044.663a6.051,6.051,0,1,0,6.051,6.051A6.051,6.051,0,0,0,1425.431,1044.663Z" fill="#1d3f4c"/>
        </g>
      </g>
      <g id="Grupo_91" data-name="Grupo 91">
        <g id="Grupo_89" data-name="Grupo 89">
          <path id="Trazado_60" data-name="Trazado 60" d="M1804.561,273.26l46.09-46.09h68.1v-1.609h-68.762l-46.09,46.09H1455.969v1.609Z" fill="#1d3f4c"/>
        </g>
        <g id="Grupo_90" data-name="Grupo 90">
          <circle id="Elipse_14" data-name="Elipse 14" cx="6.051" cy="6.051" r="6.051" transform="translate(1450.219 266.405)" fill="#1d3f4c"/>
        </g>
      </g>
      <g id="Grupo_94" data-name="Grupo 94">
        <g id="Grupo_92" data-name="Grupo 92">
          <path id="Trazado_61" data-name="Trazado 61" d="M1814.733,693.721l69.788,69.788h34.225V761.9h-33.559L1815.4,692.112H1605.566v1.609Z" fill="#1d3f4c"/>
        </g>
        <g id="Grupo_93" data-name="Grupo 93">
          <path id="Trazado_62" data-name="Trazado 62" d="M1605.869,686.866a6.051,6.051,0,1,0,6.051,6.051A6.052,6.052,0,0,0,1605.869,686.866Z" fill="#1d3f4c"/>
        </g>
      </g>
      <g id="Grupo_97" data-name="Grupo 97">
        <g id="Grupo_95" data-name="Grupo 95">
          <path id="Trazado_63" data-name="Trazado 63" d="M1815.185,329.582l66.846-66.848h36.715v-1.609h-37.381l-66.846,66.848H1552.724v1.609Z" fill="#1d3f4c"/>
        </g>
        <g id="Grupo_96" data-name="Grupo 96">
          <path id="Trazado_64" data-name="Trazado 64" d="M1553.026,334.828a6.051,6.051,0,1,1,6.051-6.051A6.052,6.052,0,0,1,1553.026,334.828Z" fill="#1d3f4c"/>
        </g>
      </g>
      <g id="Grupo_100" data-name="Grupo 100">
        <g id="Grupo_98" data-name="Grupo 98">
          <path id="Trazado_65" data-name="Trazado 65" d="M1573.709,686.364l68.281-68.281h276.756v-1.609H1641.324l-68.753,68.753Z" fill="#1d3f4c"/>
        </g>
        <g id="Grupo_99" data-name="Grupo 99">
          <path id="Trazado_66" data-name="Trazado 66" d="M1569.075,681.3a6.051,6.051,0,1,0,8.557,0A6.051,6.051,0,0,0,1569.075,681.3Z" fill="#1d3f4c"/>
        </g>
      </g>
      <g id="Grupo_103" data-name="Grupo 103">
        <g id="Grupo_101" data-name="Grupo 101">
          <path id="Trazado_67" data-name="Trazado 67" d="M1491.726,385.313h295.511l71.258-71.261h60.251v-1.609h-60.917L1786.571,383.7H1492.393l-86.9-86.9-1.138,1.138Z" fill="#1d3f4c"/>
        </g>
        <g id="Grupo_102" data-name="Grupo 102">
          <path id="Trazado_68" data-name="Trazado 68" d="M1409.418,293.31a6.051,6.051,0,1,0,0,8.557A6.052,6.052,0,0,0,1409.418,293.31Z" fill="#1d3f4c"/>
        </g>
      </g>
      <g id="Grupo_106" data-name="Grupo 106">
        <g id="Grupo_104" data-name="Grupo 104">
          <path id="Trazado_69" data-name="Trazado 69" d="M1755.417,452.107l108.31-108.31h55.019v-1.609h-55.685L1754.279,450.969Z" fill="#1d3f4c"/>
        </g>
        <g id="Grupo_105" data-name="Grupo 105">
          <path id="Trazado_70" data-name="Trazado 70" d="M1750.783,447.045a6.051,6.051,0,1,0,8.557,0A6.053,6.053,0,0,0,1750.783,447.045Z" fill="#1d3f4c"/>
        </g>
      </g>
      <g id="Grupo_109" data-name="Grupo 109">
        <g id="Grupo_107" data-name="Grupo 107">
          <path id="Trazado_71" data-name="Trazado 71" d="M1894.691,556.96l24.055,24.055v-2.276l-23.388-23.388H1477.429v1.609Z" fill="#1d3f4c"/>
        </g>
        <g id="Grupo_108" data-name="Grupo 108">
          <path id="Trazado_72" data-name="Trazado 72" d="M1477.731,550.1a6.051,6.051,0,1,0,6.051,6.052A6.052,6.052,0,0,0,1477.731,550.1Z" fill="#1d3f4c"/>
        </g>
      </g>
      <g id="Grupo_112" data-name="Grupo 112">
        <g id="Grupo_110" data-name="Grupo 110">
          <rect id="Rectángulo_6" data-name="Rectángulo 6" width="57.449" height="1.609" transform="translate(1861.298 396.125)" fill="#1d3f4c"/>
        </g>
        <g id="Grupo_111" data-name="Grupo 111">
          <path id="Trazado_73" data-name="Trazado 73" d="M1861.6,390.878a6.051,6.051,0,1,0,6.051,6.051A6.052,6.052,0,0,0,1861.6,390.878Z" fill="#1d3f4c"/>
        </g>
      </g>
      <g id="Grupo_115" data-name="Grupo 115">
        <g id="Grupo_113" data-name="Grupo 113">
          <rect id="Rectángulo_7" data-name="Rectángulo 7" width="73.139" height="1.609" transform="translate(1845.607 427.505)" fill="#1d3f4c"/>
        </g>
        <g id="Grupo_114" data-name="Grupo 114">
          <circle id="Elipse_15" data-name="Elipse 15" cx="6.051" cy="6.051" r="6.051" transform="translate(1839.858 422.258)" fill="#1d3f4c"/>
        </g>
      </g>
      <g id="Grupo_119" data-name="Grupo 119">
        <g id="Grupo_116" data-name="Grupo 116">
          <rect id="Rectángulo_8" data-name="Rectángulo 8" width="69.567" height="1.609" transform="translate(1482.661 711.953)" fill="#1d3f4c"/>
        </g>
        <g id="Grupo_117" data-name="Grupo 117">
          <path id="Trazado_74" data-name="Trazado 74" d="M1551.925,706.706a6.052,6.052,0,1,1-6.051,6.052A6.052,6.052,0,0,1,1551.925,706.706Z" fill="#1d3f4c"/>
        </g>
        <g id="Grupo_118" data-name="Grupo 118">
          <path id="Trazado_75" data-name="Trazado 75" d="M1482.963,706.706a6.052,6.052,0,1,0,6.05,6.052A6.053,6.053,0,0,0,1482.963,706.706Z" fill="#1d3f4c"/>
        </g>
      </g>
      <g id="Grupo_122" data-name="Grupo 122">
        <g id="Grupo_120" data-name="Grupo 120">
          <path id="Trazado_76" data-name="Trazado 76" d="M1891.058,652.111l27.688,27.688v-2.276L1891.724,650.5H1665.71v1.609Z" fill="#1d3f4c"/>
        </g>
        <g id="Grupo_121" data-name="Grupo 121">
          <circle id="Elipse_16" data-name="Elipse 16" cx="6.051" cy="6.051" r="6.051" transform="translate(1659.962 645.254)" fill="#1d3f4c"/>
        </g>
      </g>
      <g id="Grupo_125" data-name="Grupo 125">
        <g id="Grupo_123" data-name="Grupo 123">
          <path id="Trazado_77" data-name="Trazado 77" d="M1591,1010.369,1707.364,894H1840.73l75.836-75.836h2.18v-1.609H1915.9l-75.836,75.836H1706.7L1590.33,1008.759H1438.2v1.609Z" fill="#1d3f4c"/>
        </g>
        <g id="Grupo_124" data-name="Grupo 124">
          <path id="Trazado_78" data-name="Trazado 78" d="M1438.5,1003.513a6.051,6.051,0,1,0,6.051,6.051A6.051,6.051,0,0,0,1438.5,1003.513Z" fill="#1d3f4c"/>
        </g>
      </g>
      <g id="Grupo_128" data-name="Grupo 128">
        <g id="Grupo_126" data-name="Grupo 126">
          <path id="Trazado_79" data-name="Trazado 79" d="M1431.859,832.171l89.84-89.843h268.679l52.3,52.3h76.067V793.02h-75.4l-52.3-52.3H1521.032l-90.311,90.315Z" fill="#1d3f4c"/>
        </g>
        <g id="Grupo_127" data-name="Grupo 127">
          <path id="Trazado_80" data-name="Trazado 80" d="M1427.225,827.108a6.051,6.051,0,1,0,8.557,0A6.052,6.052,0,0,0,1427.225,827.108Z" fill="#1d3f4c"/>
        </g>
      </g>
      <g id="Grupo_132" data-name="Grupo 132">
        <g id="Grupo_129" data-name="Grupo 129">
          <path id="Trazado_81" data-name="Trazado 81" d="M1675.317,834.862h154.1v1.609H1675.983l-94.14,94.14H1455.656l-44.548-44.547,1.138-1.138L1456.322,929h124.854Z" fill="#1d3f4c"/>
        </g>
        <g id="Grupo_130" data-name="Grupo 130">
          <circle id="Elipse_17" data-name="Elipse 17" cx="6.051" cy="6.051" r="6.051" transform="translate(1823.065 829.615)" fill="#1d3f4c"/>
        </g>
        <g id="Grupo_131" data-name="Grupo 131">
          <path id="Trazado_82" data-name="Trazado 82" d="M1416.17,881.43a6.051,6.051,0,1,0,0,8.558A6.054,6.054,0,0,0,1416.17,881.43Z" fill="#1d3f4c"/>
        </g>
      </g>
      <g id="Grupo_136" data-name="Grupo 136">
        <g id="Grupo_133" data-name="Grupo 133">
          <path id="Trazado_83" data-name="Trazado 83" d="M1617.788,795.637h159.331v1.609H1618.454l-71.915,71.911h-63.882v-1.609h63.215Z" fill="#1d3f4c"/>
        </g>
        <g id="Grupo_134" data-name="Grupo 134">
          <path id="Trazado_84" data-name="Trazado 84" d="M1776.816,790.39a6.051,6.051,0,1,1-6.052,6.051A6.052,6.052,0,0,1,1776.816,790.39Z" fill="#1d3f4c"/>
        </g>
        <g id="Grupo_135" data-name="Grupo 135">
          <path id="Trazado_85" data-name="Trazado 85" d="M1482.961,862.3a6.051,6.051,0,1,0,6.05,6.05A6.051,6.051,0,0,0,1482.961,862.3Z" fill="#1d3f4c"/>
        </g>
      </g>
      <g id="Grupo_140" data-name="Grupo 140">
        <g id="Grupo_137" data-name="Grupo 137">
          <path id="Trazado_86" data-name="Trazado 86" d="M1531.494,596.9h305.772v1.609H1532.16L1416.169,714.5l-1.138-1.138Z" fill="#1d3f4c"/>
        </g>
        <g id="Grupo_138" data-name="Grupo 138">
          <path id="Trazado_87" data-name="Trazado 87" d="M1836.963,591.655a6.051,6.051,0,1,1-6.051,6.051A6.051,6.051,0,0,1,1836.963,591.655Z" fill="#1d3f4c"/>
        </g>
        <g id="Grupo_139" data-name="Grupo 139">
          <path id="Trazado_88" data-name="Trazado 88" d="M1411.534,709.438a6.051,6.051,0,1,0,8.558,0A6.054,6.054,0,0,0,1411.534,709.438Z" fill="#1d3f4c"/>
        </g>
      </g>
      <g id="Grupo_143" data-name="Grupo 143">
        <g id="Grupo_141" data-name="Grupo 141">
          <path id="Trazado_89" data-name="Trazado 89" d="M1895.636,519.4l23.11,23.11v-2.276L1896.3,517.795H1451.28V519.4Z" fill="#1d3f4c"/>
        </g>
        <g id="Grupo_142" data-name="Grupo 142">
          <circle id="Elipse_18" data-name="Elipse 18" cx="6.051" cy="6.051" r="6.051" transform="translate(1445.531 512.549)" fill="#1d3f4c"/>
        </g>
      </g>
      <g id="Grupo_146" data-name="Grupo 146">
        <g id="Grupo_144" data-name="Grupo 144">
          <path id="Trazado_90" data-name="Trazado 90" d="M1892.694,480.506l26.052,26.053v-2.276L1893.36,478.9H1427.744v1.609Z" fill="#1d3f4c"/>
        </g>
        <g id="Grupo_145" data-name="Grupo 145">
          <circle id="Elipse_19" data-name="Elipse 19" cx="6.051" cy="6.051" r="6.051" transform="translate(1421.996 473.651)" fill="#1d3f4c"/>
        </g>
      </g>
      <g id="Grupo_149" data-name="Grupo 149">
        <g id="Grupo_147" data-name="Grupo 147">
          <path id="Trazado_91" data-name="Trazado 91" d="M1777.3,206.252h141.442v-1.609H1777.971L1652.825,79.5l-1.138,1.138Z" fill="#1d3f4c"/>
        </g>
        <g id="Grupo_148" data-name="Grupo 148">
          <circle id="Elipse_20" data-name="Elipse 20" cx="6.051" cy="6.051" r="6.051" transform="translate(1646.42 74.23)" fill="#1d3f4c"/>
        </g>
      </g>
      <g id="Grupo_153" data-name="Grupo 153">
        <g id="Grupo_150" data-name="Grupo 150">
          <path id="Trazado_92" data-name="Trazado 92" d="M1417.935,125.539h223.4l81.16,81.158-1.138,1.138-80.688-80.686H1417.935Z" fill="#1d3f4c"/>
        </g>
        <g id="Grupo_151" data-name="Grupo 151">
          <path id="Trazado_93" data-name="Trazado 93" d="M1725.988,202.774a6.051,6.051,0,1,1-8.557,0A6.051,6.051,0,0,1,1725.988,202.774Z" fill="#1d3f4c"/>
        </g>
        <g id="Grupo_152" data-name="Grupo 152">
          <circle id="Elipse_21" data-name="Elipse 21" cx="6.051" cy="6.051" r="6.051" transform="translate(1412.186 120.293)" fill="#1d3f4c"/>
        </g>
      </g>
    </g>
  </g>
</svg>
