<svg data-name="Grupo 243" xmlns="http://www.w3.org/2000/svg" width="1920" height="1080"><defs><radialGradient id="a" cx=".5" cy=".5" r=".5" gradientUnits="objectBoundingBox"><stop offset="0" stop-color="#14384e"/><stop offset="1" stop-color="#0d222d"/></radialGradient></defs><path data-name="Rectángulo 2" fill="url(#a)" d="M0 0h1920v1080H0z"/><g data-name="Grupo 155"><g data-name="Grupo 82"><g data-name="Grupo 13"><g data-name="Grupo 11"><path data-name="Trazado 18" d="M104.218 908.512H2.001v1.609h101.55l142.14 142.145 1.138-1.138Z" fill="#1d3f4c"/></g><g data-name="Grupo 12"><path data-name="Trazado 19" d="M241.768 1055.759a6.051 6.051 0 1 0 0-8.558 6.054 6.054 0 0 0 0 8.558Z" fill="#1d3f4c"/></g></g><g data-name="Grupo 16"><g data-name="Grupo 14"><path data-name="Trazado 20" d="m330.444 29.247-91 91H57.622L2.001 175.866v2.276l56.287-56.286h181.819l91-91h164.511v-1.609Z" fill="#1d3f4c"/></g><g data-name="Grupo 15"><path data-name="Trazado 21" d="M495.316 36.103a6.051 6.051 0 1 0-6.051-6.051 6.052 6.052 0 0 0 6.051 6.051Z" fill="#1d3f4c"/></g></g><g data-name="Grupo 19"><g data-name="Grupo 17"><path data-name="Trazado 22" d="m116.186 807.505-46.09 46.09H2.001v1.609h68.761l46.09-46.09h347.926v-1.609Z" fill="#1d3f4c"/></g><g data-name="Grupo 18"><path data-name="Trazado 23" d="M464.476 814.361a6.051 6.051 0 1 0-6.051-6.051 6.051 6.051 0 0 0 6.051 6.051Z" fill="#1d3f4c"/></g></g><g data-name="Grupo 22"><g data-name="Grupo 20"><path data-name="Trazado 24" d="m106.014 387.044-69.788-69.788H2.001v1.61H35.56l69.784 69.788h209.837v-1.609Z" fill="#1d3f4c"/></g><g data-name="Grupo 21"><path data-name="Trazado 25" d="M314.878 393.9a6.051 6.051 0 1 0-6.051-6.051 6.052 6.052 0 0 0 6.051 6.051Z" fill="#1d3f4c"/></g></g><g data-name="Grupo 25"><g data-name="Grupo 23"><path data-name="Trazado 26" d="m105.561 751.184-66.846 66.847H2.001v1.609h37.381l66.846-66.848h261.795v-1.609Z" fill="#1d3f4c"/></g><g data-name="Grupo 24" transform="translate(-.156 .766)"><circle data-name="Elipse 6" cx="6.051" cy="6.051" r="6.051" transform="translate(361.826 745.172)" fill="#1d3f4c"/></g></g><g data-name="Grupo 28"><g data-name="Grupo 26"><path data-name="Trazado 27" d="m347.038 394.402-68.281 68.281H2.001v1.609h277.422l68.753-68.752Z" fill="#1d3f4c"/></g><g data-name="Grupo 27"><path data-name="Trazado 28" d="M351.671 399.466a6.051 6.051 0 1 0-8.557 0 6.05 6.05 0 0 0 8.557 0Z" fill="#1d3f4c"/></g></g><g data-name="Grupo 31"><g data-name="Grupo 29"><path data-name="Trazado 29" d="M429.02 695.453H133.509l-71.257 71.261H2.001v1.609h60.917l71.258-71.257h294.178l86.9 86.9 1.138-1.138Z" fill="#1d3f4c"/></g><g data-name="Grupo 30" transform="translate(-.156 .766)"><circle data-name="Elipse 7" cx="6.051" cy="6.051" r="6.051" transform="translate(509.712 776.36)" fill="#1d3f4c"/></g></g><g data-name="Grupo 34"><g data-name="Grupo 32"><path data-name="Trazado 30" d="M165.33 628.659 57.02 736.966H2.001v1.609h55.685l108.782-108.779Z" fill="#1d3f4c"/></g><g data-name="Grupo 33"><path data-name="Trazado 31" d="M169.963 633.721a6.051 6.051 0 1 0-8.557 0 6.051 6.051 0 0 0 8.557 0Z" fill="#1d3f4c"/></g></g><g data-name="Grupo 37"><g data-name="Grupo 35"><path data-name="Trazado 32" d="M26.055 523.806 2.001 499.751v2.276l23.388 23.388h417.929v-1.609Z" fill="#1d3f4c"/></g><g data-name="Grupo 36"><path data-name="Trazado 33" d="M443.015 530.666a6.051 6.051 0 1 0-6.051-6.051 6.051 6.051 0 0 0 6.051 6.051Z" fill="#1d3f4c"/></g></g><g data-name="Grupo 40"><g data-name="Grupo 38"><path data-name="Rectángulo 3" fill="#1d3f4c" d="M2.001 683.032H59.45v1.609H2.001z"/></g><g data-name="Grupo 39"><path data-name="Trazado 34" d="M59.144 689.888a6.051 6.051 0 1 0-6.051-6.051 6.051 6.051 0 0 0 6.051 6.051Z" fill="#1d3f4c"/></g></g><g data-name="Grupo 43"><g data-name="Grupo 41"><path data-name="Rectángulo 4" fill="#1d3f4c" d="M2.001 651.651H75.14v1.609H2.001z"/></g><g data-name="Grupo 42" transform="translate(-.156 .766)"><circle data-name="Elipse 8" cx="6.051" cy="6.051" r="6.051" transform="translate(68.943 645.639)" fill="#1d3f4c"/></g></g><g data-name="Grupo 47"><g data-name="Grupo 44"><path data-name="Rectángulo 5" fill="#1d3f4c" d="M368.519 367.203h69.567v1.609h-69.567z"/></g><g data-name="Grupo 45"><path data-name="Trazado 35" d="M368.822 374.059a6.051 6.051 0 1 1 6.051-6.051 6.051 6.051 0 0 1-6.051 6.051Z" fill="#1d3f4c"/></g><g data-name="Grupo 46"><path data-name="Trazado 36" d="M437.784 374.059a6.051 6.051 0 1 0-6.05-6.051 6.052 6.052 0 0 0 6.05 6.051Z" fill="#1d3f4c"/></g></g><g data-name="Grupo 50"><g data-name="Grupo 48"><path data-name="Trazado 37" d="M29.689 428.655 2.001 400.966v2.276l27.022 27.024h226.013v-1.609Z" fill="#1d3f4c"/></g><g data-name="Grupo 49"><path data-name="Trazado 38" d="M254.734 435.511a6.051 6.051 0 1 0-6.051-6.051 6.051 6.051 0 0 0 6.051 6.051Z" fill="#1d3f4c"/></g></g><g data-name="Grupo 53"><g data-name="Grupo 51"><path data-name="Trazado 39" d="M329.75 70.397 213.383 186.766H80.017L4.18 262.602H2.001v1.609h2.843l75.836-75.836h133.37L330.417 72.007h152.127v-1.61Z" fill="#1d3f4c"/></g><g data-name="Grupo 52" transform="translate(-.156 .766)"><circle data-name="Elipse 9" cx="6.051" cy="6.051" r="6.051" transform="translate(476.348 64.385)" fill="#1d3f4c"/></g></g><g data-name="Grupo 56"><g data-name="Grupo 54"><path data-name="Trazado 40" d="m488.888 248.595-89.844 89.843H130.369l-52.3-52.3H2.001v1.609h75.4l52.3 52.3h270.013l90.311-90.315Z" fill="#1d3f4c"/></g><g data-name="Grupo 55"><path data-name="Trazado 41" d="M493.522 253.657a6.051 6.051 0 1 0-8.557 0 6.051 6.051 0 0 0 8.557 0Z" fill="#1d3f4c"/></g></g><g data-name="Grupo 60"><g data-name="Grupo 57"><path data-name="Trazado 42" d="M245.43 245.904H91.328v-1.609h153.436l94.14-94.14h126.187l44.553 44.547-1.138 1.138-44.082-44.074H339.57Z" fill="#1d3f4c"/></g><g data-name="Grupo 58"><path data-name="Trazado 43" d="M91.63 251.151a6.051 6.051 0 1 1 6.051-6.051 6.052 6.052 0 0 1-6.051 6.051Z" fill="#1d3f4c"/></g><g data-name="Grupo 59"><path data-name="Trazado 44" d="M504.577 199.335a6.051 6.051 0 1 0 0-8.557 6.051 6.051 0 0 0 0 8.557Z" fill="#1d3f4c"/></g></g><g data-name="Grupo 64"><g data-name="Grupo 61"><path data-name="Trazado 45" d="M302.959 285.129H143.628v-1.609h158.665l71.915-71.911h63.882v1.609h-63.216Z" fill="#1d3f4c"/></g><g data-name="Grupo 62" transform="translate(-.156 .766)"><circle data-name="Elipse 10" cx="6.051" cy="6.051" r="6.051" transform="translate(138.036 277.508)" fill="#1d3f4c"/></g><g data-name="Grupo 63"><path data-name="Trazado 46" d="M437.786 218.466a6.051 6.051 0 1 0-6.051-6.051 6.051 6.051 0 0 0 6.051 6.051Z" fill="#1d3f4c"/></g></g><g data-name="Grupo 68"><g data-name="Grupo 65"><path data-name="Trazado 47" d="M389.253 483.866H83.481v-1.609h305.106l115.991-115.991 1.138 1.138Z" fill="#1d3f4c"/></g><g data-name="Grupo 66"><path data-name="Trazado 48" d="M83.783 489.111a6.051 6.051 0 1 1 6.051-6.051 6.051 6.051 0 0 1-6.051 6.051Z" fill="#1d3f4c"/></g><g data-name="Grupo 67"><path data-name="Trazado 49" d="M509.212 371.328a6.051 6.051 0 1 0-8.558 0 6.052 6.052 0 0 0 8.558 0Z" fill="#1d3f4c"/></g></g><g data-name="Grupo 71"><g data-name="Grupo 69"><path data-name="Trazado 50" d="m25.111 561.366-23.11-23.11v2.276l22.443 22.439h445.022v-1.605Z" fill="#1d3f4c"/></g><g data-name="Grupo 70" transform="translate(-.156 .766)"><circle data-name="Elipse 11" cx="6.051" cy="6.051" r="6.051" transform="translate(463.269 555.349)" fill="#1d3f4c"/></g></g><g data-name="Grupo 74"><g data-name="Grupo 72"><path data-name="Trazado 51" d="M28.053 600.26 2.001 574.207v2.276l25.386 25.383h465.616v-1.609Z" fill="#1d3f4c"/></g><g data-name="Grupo 73"><path data-name="Trazado 52" d="M492.7 607.115a6.052 6.052 0 1 0-6.056-6.049 6.052 6.052 0 0 0 6.056 6.049Z" fill="#1d3f4c"/></g></g><g data-name="Grupo 77"><g data-name="Grupo 75"><path data-name="Trazado 53" d="M143.444 874.513H2.001v1.609h140.775l125.145 125.144 1.138-1.138Z" fill="#1d3f4c"/></g><g data-name="Grupo 76"><path data-name="Trazado 54" d="M263.997 1004.766a6.051 6.051 0 1 0 0-8.558 6.051 6.051 0 0 0 0 8.558Z" fill="#1d3f4c"/></g></g><g data-name="Grupo 81"><g data-name="Grupo 78"><path data-name="Trazado 55" d="M502.812 955.226H279.414l-81.16-81.16 1.138-1.138 80.688 80.686h222.732Z" fill="#1d3f4c"/></g><g data-name="Grupo 79"><path data-name="Trazado 56" d="M194.759 877.992a6.051 6.051 0 1 1 8.557 0 6.051 6.051 0 0 1-8.557 0Z" fill="#1d3f4c"/></g><g data-name="Grupo 80" transform="translate(-.156 .766)"><circle data-name="Elipse 12" cx="6.051" cy="6.051" r="6.051" transform="translate(496.615 947.605)" fill="#1d3f4c"/></g></g></g><g data-name="Grupo 154"><g data-name="Grupo 85"><g data-name="Grupo 83"><path data-name="Trazado 57" d="M1816.373 173.019h102.217v-1.609h-101.546L1674.9 29.266l-1.138 1.138Z" fill="#1d3f4c"/></g><g data-name="Grupo 84" transform="translate(-.156 .766)"><circle data-name="Elipse 13" cx="6.051" cy="6.051" r="6.051" transform="translate(1668.649 23.235)" fill="#1d3f4c"/></g></g><g data-name="Grupo 88"><g data-name="Grupo 86"><path data-name="Trazado 58" d="m1590.151 1052.285 91-91h181.819l55.621-55.621v-2.276l-56.287 56.288h-181.82l-91 91h-164.511v1.609Z" fill="#1d3f4c"/></g><g data-name="Grupo 87"><path data-name="Trazado 59" d="M1425.275 1045.429a6.051 6.051 0 1 0 6.051 6.051 6.051 6.051 0 0 0-6.051-6.051Z" fill="#1d3f4c"/></g></g><g data-name="Grupo 91"><g data-name="Grupo 89"><path data-name="Trazado 60" d="m1804.405 274.026 46.09-46.09h68.1v-1.609h-68.762l-46.09 46.09h-347.93v1.609Z" fill="#1d3f4c"/></g><g data-name="Grupo 90" transform="translate(-.156 .766)"><circle data-name="Elipse 14" cx="6.051" cy="6.051" r="6.051" transform="translate(1450.219 266.405)" fill="#1d3f4c"/></g></g><g data-name="Grupo 94"><g data-name="Grupo 92"><path data-name="Trazado 61" d="m1814.577 694.487 69.788 69.788h34.225v-1.609h-33.559l-69.787-69.788H1605.41v1.609Z" fill="#1d3f4c"/></g><g data-name="Grupo 93"><path data-name="Trazado 62" d="M1605.713 687.632a6.051 6.051 0 1 0 6.051 6.051 6.052 6.052 0 0 0-6.051-6.051Z" fill="#1d3f4c"/></g></g><g data-name="Grupo 97"><g data-name="Grupo 95"><path data-name="Trazado 63" d="m1815.029 330.348 66.846-66.848h36.715v-1.609h-37.381l-66.846 66.848h-261.795v1.609Z" fill="#1d3f4c"/></g><g data-name="Grupo 96"><path data-name="Trazado 64" d="M1552.87 335.594a6.051 6.051 0 1 1 6.051-6.051 6.052 6.052 0 0 1-6.051 6.051Z" fill="#1d3f4c"/></g></g><g data-name="Grupo 100"><g data-name="Grupo 98"><path data-name="Trazado 65" d="m1573.553 687.13 68.281-68.281h276.756v-1.609h-277.422l-68.753 68.753Z" fill="#1d3f4c"/></g><g data-name="Grupo 99"><path data-name="Trazado 66" d="M1568.919 682.066a6.051 6.051 0 1 0 8.557 0 6.051 6.051 0 0 0-8.557 0Z" fill="#1d3f4c"/></g></g><g data-name="Grupo 103"><g data-name="Grupo 101"><path data-name="Trazado 67" d="M1491.57 386.079h295.511l71.258-71.261h60.251v-1.609h-60.917l-71.258 71.257h-294.178l-86.9-86.9-1.138 1.138Z" fill="#1d3f4c"/></g><g data-name="Grupo 102"><path data-name="Trazado 68" d="M1409.262 294.076a6.051 6.051 0 1 0 0 8.557 6.052 6.052 0 0 0 0-8.557Z" fill="#1d3f4c"/></g></g><g data-name="Grupo 106"><g data-name="Grupo 104"><path data-name="Trazado 69" d="m1755.261 452.873 108.31-108.31h55.019v-1.609h-55.685l-108.782 108.781Z" fill="#1d3f4c"/></g><g data-name="Grupo 105"><path data-name="Trazado 70" d="M1750.627 447.811a6.051 6.051 0 1 0 8.557 0 6.053 6.053 0 0 0-8.557 0Z" fill="#1d3f4c"/></g></g><g data-name="Grupo 109"><g data-name="Grupo 107"><path data-name="Trazado 71" d="m1894.535 557.726 24.055 24.055v-2.276l-23.388-23.388h-417.929v1.609Z" fill="#1d3f4c"/></g><g data-name="Grupo 108"><path data-name="Trazado 72" d="M1477.575 550.866a6.051 6.051 0 1 0 6.051 6.052 6.052 6.052 0 0 0-6.051-6.052Z" fill="#1d3f4c"/></g></g><g data-name="Grupo 112"><g data-name="Grupo 110"><path data-name="Rectángulo 6" fill="#1d3f4c" d="M1861.142 396.891h57.449v1.609h-57.449z"/></g><g data-name="Grupo 111"><path data-name="Trazado 73" d="M1861.444 391.644a6.051 6.051 0 1 0 6.051 6.051 6.052 6.052 0 0 0-6.051-6.051Z" fill="#1d3f4c"/></g></g><g data-name="Grupo 115"><g data-name="Grupo 113"><path data-name="Rectángulo 7" fill="#1d3f4c" d="M1845.451 428.271h73.139v1.609h-73.139z"/></g><g data-name="Grupo 114" transform="translate(-.156 .766)"><circle data-name="Elipse 15" cx="6.051" cy="6.051" r="6.051" transform="translate(1839.858 422.258)" fill="#1d3f4c"/></g></g><g data-name="Grupo 119"><g data-name="Grupo 116"><path data-name="Rectángulo 8" fill="#1d3f4c" d="M1482.505 712.719h69.567v1.609h-69.567z"/></g><g data-name="Grupo 117"><path data-name="Trazado 74" d="M1551.769 707.472a6.052 6.052 0 1 1-6.051 6.052 6.052 6.052 0 0 1 6.051-6.052Z" fill="#1d3f4c"/></g><g data-name="Grupo 118"><path data-name="Trazado 75" d="M1482.807 707.472a6.052 6.052 0 1 0 6.05 6.052 6.053 6.053 0 0 0-6.05-6.052Z" fill="#1d3f4c"/></g></g><g data-name="Grupo 122"><g data-name="Grupo 120"><path data-name="Trazado 76" d="m1890.902 652.877 27.688 27.688v-2.276l-27.022-27.023h-226.014v1.609Z" fill="#1d3f4c"/></g><g data-name="Grupo 121" transform="translate(-.156 .766)"><circle data-name="Elipse 16" cx="6.051" cy="6.051" r="6.051" transform="translate(1659.962 645.254)" fill="#1d3f4c"/></g></g><g data-name="Grupo 125"><g data-name="Grupo 123"><path data-name="Trazado 77" d="m1590.844 1011.135 116.364-116.369h133.366l75.836-75.836h2.18v-1.609h-2.846l-75.836 75.836h-133.364l-116.37 116.368h-152.13v1.609Z" fill="#1d3f4c"/></g><g data-name="Grupo 124"><path data-name="Trazado 78" d="M1438.344 1004.279a6.051 6.051 0 1 0 6.051 6.051 6.051 6.051 0 0 0-6.051-6.051Z" fill="#1d3f4c"/></g></g><g data-name="Grupo 128"><g data-name="Grupo 126"><path data-name="Trazado 79" d="m1431.703 832.937 89.84-89.843h268.679l52.3 52.3h76.067v-1.608h-75.4l-52.3-52.3h-270.013l-90.311 90.315Z" fill="#1d3f4c"/></g><g data-name="Grupo 127"><path data-name="Trazado 80" d="M1427.069 827.874a6.051 6.051 0 1 0 8.557 0 6.052 6.052 0 0 0-8.557 0Z" fill="#1d3f4c"/></g></g><g data-name="Grupo 132"><g data-name="Grupo 129"><path data-name="Trazado 81" d="M1675.161 835.628h154.1v1.609h-153.434l-94.14 94.14H1455.5l-44.548-44.547 1.138-1.138 44.076 44.074h124.854Z" fill="#1d3f4c"/></g><g data-name="Grupo 130" transform="translate(-.156 .766)"><circle data-name="Elipse 17" cx="6.051" cy="6.051" r="6.051" transform="translate(1823.065 829.615)" fill="#1d3f4c"/></g><g data-name="Grupo 131"><path data-name="Trazado 82" d="M1416.014 882.196a6.051 6.051 0 1 0 0 8.558 6.054 6.054 0 0 0 0-8.558Z" fill="#1d3f4c"/></g></g><g data-name="Grupo 136"><g data-name="Grupo 133"><path data-name="Trazado 83" d="M1617.632 796.403h159.331v1.609h-158.665l-71.915 71.911h-63.882v-1.609h63.215Z" fill="#1d3f4c"/></g><g data-name="Grupo 134"><path data-name="Trazado 84" d="M1776.66 791.156a6.051 6.051 0 1 1-6.052 6.051 6.052 6.052 0 0 1 6.052-6.051Z" fill="#1d3f4c"/></g><g data-name="Grupo 135"><path data-name="Trazado 85" d="M1482.805 863.066a6.051 6.051 0 1 0 6.05 6.05 6.051 6.051 0 0 0-6.05-6.05Z" fill="#1d3f4c"/></g></g><g data-name="Grupo 140"><g data-name="Grupo 137"><path data-name="Trazado 86" d="M1531.338 597.666h305.772v1.609h-305.106l-115.991 115.991-1.138-1.138Z" fill="#1d3f4c"/></g><g data-name="Grupo 138"><path data-name="Trazado 87" d="M1836.807 592.421a6.051 6.051 0 1 1-6.051 6.051 6.051 6.051 0 0 1 6.051-6.051Z" fill="#1d3f4c"/></g><g data-name="Grupo 139"><path data-name="Trazado 88" d="M1411.378 710.204a6.051 6.051 0 1 0 8.558 0 6.054 6.054 0 0 0-8.558 0Z" fill="#1d3f4c"/></g></g><g data-name="Grupo 143"><g data-name="Grupo 141"><path data-name="Trazado 89" d="m1895.48 520.166 23.11 23.11V541l-22.446-22.439h-445.02v1.605Z" fill="#1d3f4c"/></g><g data-name="Grupo 142" transform="translate(-.156 .766)"><circle data-name="Elipse 18" cx="6.051" cy="6.051" r="6.051" transform="translate(1445.531 512.549)" fill="#1d3f4c"/></g></g><g data-name="Grupo 146"><g data-name="Grupo 144"><path data-name="Trazado 90" d="m1892.538 481.272 26.052 26.053v-2.276l-25.386-25.383h-465.616v1.609Z" fill="#1d3f4c"/></g><g data-name="Grupo 145" transform="translate(-.156 .766)"><circle data-name="Elipse 19" cx="6.051" cy="6.051" r="6.051" transform="translate(1421.996 473.651)" fill="#1d3f4c"/></g></g><g data-name="Grupo 149"><g data-name="Grupo 147"><path data-name="Trazado 91" d="M1777.144 207.018h141.442v-1.609h-140.771L1652.669 80.266l-1.138 1.138Z" fill="#1d3f4c"/></g><g data-name="Grupo 148" transform="translate(-.156 .766)"><circle data-name="Elipse 20" cx="6.051" cy="6.051" r="6.051" transform="translate(1646.42 74.23)" fill="#1d3f4c"/></g></g><g data-name="Grupo 153"><g data-name="Grupo 150"><path data-name="Trazado 92" d="M1417.779 126.305h223.4l81.16 81.158-1.138 1.138-80.688-80.686h-222.734Z" fill="#1d3f4c"/></g><g data-name="Grupo 151"><path data-name="Trazado 93" d="M1725.832 203.54a6.051 6.051 0 1 1-8.557 0 6.051 6.051 0 0 1 8.557 0Z" fill="#1d3f4c"/></g><g data-name="Grupo 152" transform="translate(-.156 .766)"><circle data-name="Elipse 21" cx="6.051" cy="6.051" r="6.051" transform="translate(1412.186 120.293)" fill="#1d3f4c"/></g></g></g></g></svg>